<svg width="56" height="56" viewBox="0 0 56 56" fill="none" xmlns="http://www.w3.org/2000/svg">
<path fill-rule="evenodd" clip-rule="evenodd" d="M46.666 48.9998H9.33268C6.75435 48.9998 4.66602 46.9115 4.66602 44.3332V30.3332C4.66602 27.7548 6.75435 25.6665 9.33268 25.6665H46.666C49.2444 25.6665 51.3327 27.7548 51.3327 30.3332V44.3332C51.3327 46.9115 49.2444 48.9998 46.666 48.9998Z" stroke="#323232" stroke-width="1.5" stroke-linecap="round" stroke-linejoin="round"/>
<path d="M21 40.8332H35" stroke="#323232" stroke-width="1.5" stroke-linecap="round" stroke-linejoin="round"/>
<path d="M28 25.6667V22.1667C28 18.9467 30.611 16.3333 33.8333 16.3333V16.3333C37.0557 16.3333 39.6667 13.7223 39.6667 10.5V7" stroke="#323232" stroke-width="1.5" stroke-linecap="round" stroke-linejoin="round"/>
<path d="M35.0007 33.7048C35.066 33.7048 35.1173 33.7561 35.1173 33.8215C35.1173 33.8868 35.066 33.9381 35.0007 33.9381C34.9353 33.9381 34.884 33.8868 34.884 33.8215C34.884 33.7561 34.9353 33.7048 35.0007 33.7048" stroke="#323232" stroke-width="1.5" stroke-linecap="round" stroke-linejoin="round"/>
<path d="M42.0007 33.7048C42.066 33.7048 42.1173 33.7561 42.1173 33.8215C42.1173 33.8868 42.066 33.9381 42.0007 33.9381C41.9353 33.9381 41.884 33.8868 41.884 33.8215C41.884 33.7561 41.9353 33.7048 42.0007 33.7048" stroke="#323232" stroke-width="1.5" stroke-linecap="round" stroke-linejoin="round"/>
<path d="M28.0007 33.7165C28.066 33.7165 28.1173 33.7678 28.1173 33.8332C28.1173 33.8985 28.066 33.9498 28.0007 33.9498C27.9353 33.9498 27.884 33.8985 27.884 33.8332C27.884 33.7678 27.9353 33.7165 28.0007 33.7165" stroke="#323232" stroke-width="1.5" stroke-linecap="round" stroke-linejoin="round"/>
<path d="M14.0007 33.7165C14.066 33.7165 14.1173 33.7678 14.1173 33.8332C14.1173 33.8985 14.066 33.9498 14.0007 33.9498C13.9353 33.9498 13.884 33.8985 13.884 33.8332C13.884 33.7678 13.9353 33.7165 14.0007 33.7165" stroke="#323232" stroke-width="1.5" stroke-linecap="round" stroke-linejoin="round"/>
<path d="M21.0007 33.7165C21.066 33.7165 21.1173 33.7678 21.1173 33.8332C21.1173 33.8985 21.066 33.9498 21.0007 33.9498C20.9353 33.9498 20.884 33.8985 20.884 33.8332C20.884 33.7678 20.9353 33.7165 21.0007 33.7165" stroke="#323232" stroke-width="1.5" stroke-linecap="round" stroke-linejoin="round"/>
<path d="M42.0007 40.7165C42.066 40.7165 42.1173 40.7678 42.1173 40.8332C42.1173 40.8985 42.066 40.9498 42.0007 40.9498C41.9353 40.9498 41.884 40.8985 41.884 40.8332C41.884 40.7678 41.9353 40.7165 42.0007 40.7165" stroke="#323232" stroke-width="1.5" stroke-linecap="round" stroke-linejoin="round"/>
<path d="M14.0007 40.7048C14.066 40.7048 14.1173 40.7561 14.1173 40.8215C14.1173 40.8868 14.066 40.9381 14.0007 40.9381C13.9353 40.9381 13.884 40.8868 13.884 40.8215C13.884 40.7561 13.9353 40.7048 14.0007 40.7048" stroke="#323232" stroke-width="1.5" stroke-linecap="round" stroke-linejoin="round"/>
</svg>
