<svg width="56" height="56" viewBox="0 0 56 56" fill="none" xmlns="http://www.w3.org/2000/svg">
<path fill-rule="evenodd" clip-rule="evenodd" d="M41.9987 50.1665V40.8332C41.9987 40.1888 41.4764 39.6665 40.832 39.6665H34.2209C32.0731 39.6665 30.332 41.4076 30.332 43.5554V47.4443C30.332 49.5921 32.0731 51.3332 34.2209 51.3332H40.832C41.4764 51.3332 41.9987 50.8108 41.9987 50.1665Z" stroke="#323232" stroke-width="1.5" stroke-linecap="round" stroke-linejoin="round"/>
<path d="M42 49H48.125C48.6082 49 49 48.6082 49 48.125V42.875C49 42.3918 48.6082 42 48.125 42H42" stroke="#323232" stroke-width="1.5" stroke-linecap="round" stroke-linejoin="round"/>
<path d="M30.3333 45.4998H13.4167C9.87284 45.4998 7 42.627 7 39.0832V39.0832C7 35.5393 9.87284 32.6665 13.4167 32.6665H40.25C45.0825 32.6665 49 28.749 49 23.9165V23.9165C49 19.084 45.0825 15.1665 40.25 15.1665H28" stroke="#323232" stroke-width="1.5" stroke-linecap="round" stroke-linejoin="round"/>
<circle cx="17.5" cy="15.1665" r="10.5" stroke="#323232" stroke-width="1.5" stroke-linecap="round" stroke-linejoin="round"/>
</svg>
