<svg width="56" height="56" viewBox="0 0 56 56" fill="none" xmlns="http://www.w3.org/2000/svg">
<path fill-rule="evenodd" clip-rule="evenodd" d="M35.6453 40.7098L36.6883 38.6238C37.085 37.8328 37.8923 37.3335 38.7766 37.3335H49.0013C50.2893 37.3335 51.3346 38.3788 51.3346 39.6668V44.3335C51.3346 46.9118 49.2463 49.0002 46.668 49.0002H9.33464C6.7563 49.0002 4.66797 46.9118 4.66797 44.3335V39.6668C4.66797 38.3788 5.7133 37.3335 7.0013 37.3335H17.226C18.1103 37.3335 18.9176 37.8328 19.312 38.6238L20.355 40.7098C20.7516 41.5008 21.559 42.0002 22.4433 42.0002H33.5593C34.4436 42.0002 35.251 41.5008 35.6453 40.7098Z" stroke="#323232" stroke-width="1.5" stroke-linecap="round" stroke-linejoin="round"/>
<path d="M49 37.3333V11.6667C49 9.08833 46.9117 7 44.3333 7H11.6667C9.08833 7 7 9.08833 7 11.6667V37.3333" stroke="#323232" stroke-width="1.5" stroke-linecap="round" stroke-linejoin="round"/>
</svg>
