<svg width="56" height="56" viewBox="0 0 56 56" fill="none" xmlns="http://www.w3.org/2000/svg">
<path d="M28.0001 2.91663C32.9611 2.91663 37.8107 4.38774 41.9356 7.14393C46.0606 9.90012 49.2756 13.8176 51.1741 18.401C53.0726 22.9844 53.5693 28.0278 52.6014 32.8935C51.6336 37.7592 49.2446 42.2286 45.7367 45.7366C42.2287 49.2445 37.7593 51.6335 32.8936 52.6013C28.0279 53.5692 22.9845 53.0724 18.4011 51.1739C13.8177 49.2754 9.90024 46.0604 7.14405 41.9355C4.38786 37.8106 2.91675 32.961 2.91675 28C2.91984 21.3484 5.56353 14.9701 10.2669 10.2668C14.9703 5.56341 21.3485 2.91972 28.0001 2.91663V2.91663Z" stroke="black" stroke-linecap="round" stroke-linejoin="round"/>
<path d="M27.9999 30.9167C29.6107 30.9167 30.9166 29.6109 30.9166 28C30.9166 26.3892 29.6107 25.0834 27.9999 25.0834C26.3891 25.0834 25.0833 26.3892 25.0833 28C25.0833 29.6109 26.3891 30.9167 27.9999 30.9167Z" stroke="black" stroke-linecap="round" stroke-linejoin="round"/>
<path d="M30.45 29.575L44.6833 38.675M28 25.0833V13.3467V25.0833Z" stroke="black" stroke-linecap="round" stroke-linejoin="round"/>
</svg>
