<svg width="56" height="56" viewBox="0 0 56 56" fill="none" xmlns="http://www.w3.org/2000/svg">
<path d="M46.6667 23.3333V11.6667C46.6667 9.08833 44.5783 7 42 7H11.6667C9.08833 7 7 9.08833 7 11.6667V42C7 44.5783 9.08833 46.6667 11.6667 46.6667H21" stroke="#323232" stroke-width="1.5" stroke-linecap="round" stroke-linejoin="round"/>
<path d="M13.5917 12.81C13.5847 12.81 13.58 12.8147 13.58 12.8217C13.58 12.8287 13.5847 12.8334 13.5917 12.8334C13.5987 12.8334 13.6034 12.8287 13.6034 12.8217C13.6034 12.8147 13.5987 12.81 13.5917 12.81" stroke="#323232" stroke-width="1.5" stroke-linecap="round" stroke-linejoin="round"/>
<path d="M19.5253 12.81C19.5183 12.81 19.5136 12.8147 19.5136 12.8217C19.5136 12.8287 19.5206 12.8334 19.5253 12.8334C19.5323 12.8334 19.537 12.8287 19.537 12.8217C19.537 12.8147 19.5323 12.81 19.5253 12.81" stroke="#323232" stroke-width="1.5" stroke-linecap="round" stroke-linejoin="round"/>
<path d="M25.4496 12.81C25.4426 12.81 25.438 12.8147 25.438 12.8217C25.438 12.8287 25.4426 12.8334 25.4496 12.8334C25.4566 12.8334 25.4613 12.8287 25.4613 12.8217C25.4613 12.8147 25.4566 12.81 25.4496 12.81" stroke="#323232" stroke-width="1.5" stroke-linecap="round" stroke-linejoin="round"/>
<path d="M7.10742 18.6667H46.6668" stroke="#323232" stroke-width="1.5" stroke-linecap="round" stroke-linejoin="round"/>
<path fill-rule="evenodd" clip-rule="evenodd" d="M43.9601 32.6084L50.7548 44.6834C52.4278 47.656 50.2787 51.3334 46.8674 51.3334H33.2804C29.8668 51.3334 27.7201 47.6607 29.3931 44.6834L36.1878 32.6084C37.8888 29.575 42.2544 29.575 43.9601 32.6084V32.6084Z" stroke="#323232" stroke-width="1.5" stroke-linecap="round" stroke-linejoin="round"/>
<path d="M40.0727 41.1181V37.0254" stroke="#323232" stroke-width="1.5" stroke-linecap="round" stroke-linejoin="round"/>
<path d="M40.0703 45.633C39.9583 45.633 39.8673 45.724 39.8696 45.836C39.8696 45.948 39.9606 46.039 40.0726 46.039C40.1846 46.039 40.2733 45.948 40.2733 45.836C40.2733 45.724 40.1823 45.633 40.0703 45.633" stroke="#323232" stroke-width="1.5" stroke-linecap="round" stroke-linejoin="round"/>
</svg>
