<svg width="56" height="56" viewBox="0 0 56 56" fill="none" xmlns="http://www.w3.org/2000/svg">
<path d="M9.33325 32.9419C9.33325 36.3532 17.2059 39.1182 26.9173 39.1182" stroke="#323232" stroke-width="1.5" stroke-linecap="round" stroke-linejoin="round"/>
<path d="M44.3333 13.1763C44.3333 16.5876 36.4979 19.3526 26.8333 19.3526C17.1686 19.3526 9.33325 16.5876 9.33325 13.1763" stroke="#323232" stroke-width="1.5" stroke-linecap="round" stroke-linejoin="round"/>
<path d="M44.3333 23.0581C44.3333 26.4694 36.4979 29.2344 26.8333 29.2344C17.1686 29.2344 9.33325 26.4718 9.33325 23.0581" stroke="#323232" stroke-width="1.5" stroke-linecap="round" stroke-linejoin="round"/>
<path d="M26.9173 49C17.2059 49 9.33325 46.235 9.33325 42.8237V13.1763C9.33325 9.765 17.1686 7 26.8333 7C36.4979 7 44.3333 9.765 44.3333 13.1763V30.3333" stroke="#323232" stroke-width="1.5" stroke-linecap="round" stroke-linejoin="round"/>
<path d="M46.6666 39.6667L37.3333 49.0001" stroke="#323232" stroke-width="1.5" stroke-linecap="round" stroke-linejoin="round"/>
<path d="M46.6666 49.0001L37.3333 39.6667" stroke="#323232" stroke-width="1.5" stroke-linecap="round" stroke-linejoin="round"/>
</svg>
