<svg width="56" height="56" viewBox="0 0 56 56" fill="none" xmlns="http://www.w3.org/2000/svg">
<path fill-rule="evenodd" clip-rule="evenodd" d="M46.6663 16.3333H25.6663C24.3783 16.3333 23.333 15.288 23.333 14V9.33333C23.333 8.04533 24.3783 7 25.6663 7H46.6663C47.9543 7 48.9997 8.04533 48.9997 9.33333V14C48.9997 15.288 47.9543 16.3333 46.6663 16.3333Z" stroke="#323232" stroke-width="1.5" stroke-linecap="round" stroke-linejoin="round"/>
<path fill-rule="evenodd" clip-rule="evenodd" d="M46.6663 32.6668H25.6663C24.3783 32.6668 23.333 31.6215 23.333 30.3335V25.6668C23.333 24.3788 24.3783 23.3335 25.6663 23.3335H46.6663C47.9543 23.3335 48.9997 24.3788 48.9997 25.6668V30.3335C48.9997 31.6215 47.9543 32.6668 46.6663 32.6668Z" stroke="#323232" stroke-width="1.5" stroke-linecap="round" stroke-linejoin="round"/>
<path fill-rule="evenodd" clip-rule="evenodd" d="M46.6663 48.9998H25.6663C24.3783 48.9998 23.333 47.9545 23.333 46.6665V41.9998C23.333 40.7118 24.3783 39.6665 25.6663 39.6665H46.6663C47.9543 39.6665 48.9997 40.7118 48.9997 41.9998V46.6665C48.9997 47.9545 47.9543 48.9998 46.6663 48.9998Z" stroke="#323232" stroke-width="1.5" stroke-linecap="round" stroke-linejoin="round"/>
<path fill-rule="evenodd" clip-rule="evenodd" d="M14 16.3333H9.33333C8.04533 16.3333 7 15.288 7 14V9.33333C7 8.04533 8.04533 7 9.33333 7H14C15.288 7 16.3333 8.04533 16.3333 9.33333V14C16.3333 15.288 15.288 16.3333 14 16.3333Z" stroke="#323232" stroke-width="1.5" stroke-linecap="round" stroke-linejoin="round"/>
<path fill-rule="evenodd" clip-rule="evenodd" d="M14 32.6668H9.33333C8.04533 32.6668 7 31.6215 7 30.3335V25.6668C7 24.3788 8.04533 23.3335 9.33333 23.3335H14C15.288 23.3335 16.3333 24.3788 16.3333 25.6668V30.3335C16.3333 31.6215 15.288 32.6668 14 32.6668Z" stroke="#323232" stroke-width="1.5" stroke-linecap="round" stroke-linejoin="round"/>
<path fill-rule="evenodd" clip-rule="evenodd" d="M14 48.9998H9.33333C8.04533 48.9998 7 47.9545 7 46.6665V41.9998C7 40.7118 8.04533 39.6665 9.33333 39.6665H14C15.288 39.6665 16.3333 40.7118 16.3333 41.9998V46.6665C16.3333 47.9545 15.288 48.9998 14 48.9998Z" stroke="#323232" stroke-width="1.5" stroke-linecap="round" stroke-linejoin="round"/>
</svg>
