<svg width="56" height="56" viewBox="0 0 56 56" fill="none" xmlns="http://www.w3.org/2000/svg">
<path d="M25.667 28.0002H49.0003" stroke="#323232" stroke-width="1.5" stroke-linecap="round" stroke-linejoin="round"/>
<path d="M14.9664 24.7007C16.7887 26.5231 16.7887 29.4771 14.9664 31.2994C13.1441 33.1217 10.1901 33.1217 8.36773 31.2994C6.54539 29.4771 6.54539 26.5231 8.36773 24.7007C10.1901 22.8784 13.1441 22.8784 14.9664 24.7007" stroke="#323232" stroke-width="1.5" stroke-linecap="round" stroke-linejoin="round"/>
<path d="M25.667 11.6667H49.0003" stroke="#323232" stroke-width="1.5" stroke-linecap="round" stroke-linejoin="round"/>
<path d="M7.04688 10.5187L10.9039 13.9907L18.6669 7" stroke="#323232" stroke-width="1.5" stroke-linecap="round" stroke-linejoin="round"/>
<path d="M25.667 44.3332H49.0003" stroke="#323232" stroke-width="1.5" stroke-linecap="round" stroke-linejoin="round"/>
<path d="M14.9664 41.0342C16.7887 42.8566 16.7887 45.8106 14.9664 47.6329C13.1441 49.4552 10.1901 49.4552 8.36773 47.6329C6.54539 45.8106 6.54539 42.8566 8.36773 41.0342C10.1901 39.2119 13.1441 39.2119 14.9664 41.0342" stroke="#323232" stroke-width="1.5" stroke-linecap="round" stroke-linejoin="round"/>
</svg>
