<svg width="56" height="56" viewBox="0 0 56 56" fill="none" xmlns="http://www.w3.org/2000/svg">
<path d="M32.6681 49.0085V38.3174" stroke="#323232" stroke-width="1.5" stroke-linecap="round" stroke-linejoin="round"/>
<path d="M39.6711 49.0085V38.3174" stroke="#323232" stroke-width="1.5" stroke-linecap="round" stroke-linejoin="round"/>
<path d="M46.674 49.0085V38.3174" stroke="#323232" stroke-width="1.5" stroke-linecap="round" stroke-linejoin="round"/>
<path d="M30.334 49.0085H49.0084" stroke="#323232" stroke-width="1.5" stroke-linecap="round" stroke-linejoin="round"/>
<path fill-rule="evenodd" clip-rule="evenodd" d="M30.334 38.3178H49.0084V34.1557L39.6712 30.3345L30.334 34.1557V38.3178Z" stroke="#323232" stroke-width="1.5" stroke-linecap="round" stroke-linejoin="round"/>
<path d="M39.6712 16.3283H37.3369" stroke="#323232" stroke-width="1.5" stroke-linecap="round" stroke-linejoin="round"/>
<path d="M13.9941 32.6686H16.3284" stroke="#323232" stroke-width="1.5" stroke-linecap="round" stroke-linejoin="round"/>
<path d="M23.3314 39.6717H12.827C9.60397 39.6717 6.99121 37.0589 6.99121 33.8359V15.1614C6.99121 13.6137 7.60605 12.1294 8.70047 11.0349C9.79488 9.94052 11.2792 9.32568 12.827 9.32568H40.8386C44.0616 9.32568 46.6744 11.9384 46.6744 15.1614V23.3315" stroke="#323232" stroke-width="1.5" stroke-linecap="round" stroke-linejoin="round"/>
<path d="M22.7063 28.6249C20.4273 26.3459 20.4273 22.6509 22.7063 20.3719C24.9853 18.0928 28.6803 18.0928 30.9594 20.3719" stroke="#323232" stroke-width="1.5" stroke-linecap="round" stroke-linejoin="round"/>
</svg>
