<svg width="56" height="56" viewBox="0 0 56 56" fill="none" xmlns="http://www.w3.org/2000/svg">
<path fill-rule="evenodd" clip-rule="evenodd" d="M42.0055 49.0089H13.9938C12.7555 49.0092 11.5678 48.5175 10.6922 47.6419C9.81662 46.7663 9.3252 45.5786 9.3252 44.3403V19.8301C9.3259 17.8966 10.8931 16.3293 12.8267 16.3286H43.1726C45.1061 16.3293 46.6734 17.8966 46.6741 19.8301V44.3403C46.6741 45.5786 46.1827 46.7663 45.3071 47.6419C44.4314 48.5175 43.2438 49.0092 42.0055 49.0089Z" stroke="#323232" stroke-width="1.5" stroke-linecap="round" stroke-linejoin="round"/>
<path d="M18.6631 16.3284V15.7449V15.7449C18.6631 10.9104 22.5823 6.99133 27.4167 6.99121H28.5839C33.4183 6.99133 37.3375 10.9104 37.3375 15.7449V15.7449V16.3284" stroke="#323232" stroke-width="1.5" stroke-linecap="round" stroke-linejoin="round"/>
<path d="M30.9178 30.209L25.082 36.0447" stroke="#323232" stroke-width="1.5" stroke-linecap="round" stroke-linejoin="round"/>
<path d="M25.082 30.209L30.9178 36.0447" stroke="#323232" stroke-width="1.5" stroke-linecap="round" stroke-linejoin="round"/>
</svg>
