<svg width="56" height="56" viewBox="0 0 56 56" fill="none" xmlns="http://www.w3.org/2000/svg">
<path d="M46.6667 23.3333V11.6667C46.6667 9.08833 44.5783 7 42 7H11.6667C9.08833 7 7 9.08833 7 11.6667V42C7 44.5783 9.08833 46.6667 11.6667 46.6667H21" stroke="#323232" stroke-width="1.5" stroke-linecap="round" stroke-linejoin="round"/>
<path d="M13.5915 12.8098C13.5845 12.8098 13.5798 12.8145 13.5798 12.8215C13.5798 12.8285 13.5845 12.8331 13.5915 12.8331C13.5985 12.8331 13.6031 12.8285 13.6031 12.8215C13.6031 12.8145 13.5985 12.8098 13.5915 12.8098" stroke="#323232" stroke-width="1.5" stroke-linecap="round" stroke-linejoin="round"/>
<path d="M19.5251 12.8098C19.5181 12.8098 19.5134 12.8145 19.5134 12.8215C19.5134 12.8285 19.5204 12.8331 19.5251 12.8331C19.5321 12.8331 19.5367 12.8285 19.5367 12.8215C19.5367 12.8145 19.5321 12.8098 19.5251 12.8098" stroke="#323232" stroke-width="1.5" stroke-linecap="round" stroke-linejoin="round"/>
<path d="M25.4499 12.8098C25.4429 12.8098 25.4382 12.8145 25.4382 12.8215C25.4382 12.8285 25.4429 12.8331 25.4499 12.8331C25.4569 12.8331 25.4615 12.8285 25.4615 12.8215C25.4615 12.8145 25.4569 12.8098 25.4499 12.8098" stroke="#323232" stroke-width="1.5" stroke-linecap="round" stroke-linejoin="round"/>
<path d="M7.10742 18.6667H46.6668" stroke="#323232" stroke-width="1.5" stroke-linecap="round" stroke-linejoin="round"/>
<path fill-rule="evenodd" clip-rule="evenodd" d="M43.9603 32.6085L50.755 44.6835C52.428 47.6562 50.279 51.3335 46.8677 51.3335H33.2807C29.867 51.3335 27.7203 47.6608 29.3933 44.6835L36.188 32.6085C37.889 29.5752 42.2547 29.5752 43.9603 32.6085V32.6085Z" stroke="#323232" stroke-width="1.5" stroke-linecap="round" stroke-linejoin="round"/>
<path d="M40.0729 41.1181V37.0254" stroke="#323232" stroke-width="1.5" stroke-linecap="round" stroke-linejoin="round"/>
<path d="M40.0708 45.6331C39.9588 45.6331 39.8678 45.7241 39.8701 45.8361C39.8701 45.9481 39.9611 46.0391 40.0731 46.0391C40.1851 46.0391 40.2738 45.9481 40.2738 45.8361C40.2738 45.7241 40.1828 45.6331 40.0708 45.6331" stroke="#323232" stroke-width="1.5" stroke-linecap="round" stroke-linejoin="round"/>
</svg>
