<svg width="56" height="56" viewBox="0 0 56 56" fill="none" xmlns="http://www.w3.org/2000/svg">
<rect x="7.58398" y="39.6665" width="14" height="9.33333" rx="1.25" stroke="#323232" stroke-width="1.5" stroke-linecap="round" stroke-linejoin="round"/>
<path d="M10.5 39.6665V36.7498C10.5 34.4947 12.3282 32.6665 14.5833 32.6665V32.6665C16.8385 32.6665 18.6667 34.4947 18.6667 36.7498V39.6665" stroke="#323232" stroke-width="1.5" stroke-linecap="round" stroke-linejoin="round"/>
<path d="M30.3333 46.6668H44.3333C46.9107 46.6668 49 44.5775 49 42.0002V20.8602C49 18.2828 46.9107 16.1935 44.3333 16.1935H29.2347C28.4623 16.1935 27.74 15.8113 27.3055 15.1727L24.0272 10.3543C23.5927 9.71566 22.8703 9.33346 22.0979 9.3335H11.6667C9.08934 9.3335 7 11.4228 7 14.0002V25.6668" stroke="#323232" stroke-width="1.5" stroke-linecap="round" stroke-linejoin="round"/>
</svg>
