<svg width="56" height="56" viewBox="0 0 56 56" fill="none" xmlns="http://www.w3.org/2000/svg">
<path fill-rule="evenodd" clip-rule="evenodd" d="M40.0079 48.3161L48.3146 40.0094C49.2269 39.0971 49.2269 37.6201 48.3146 36.7101L44.6139 33.0094C43.7016 32.0971 42.2246 32.0971 41.3146 33.0094L33.0079 41.3161C32.5692 41.7548 32.3242 42.3474 32.3242 42.9658V48.9998H38.3582C38.9766 48.9998 39.5692 48.7548 40.0079 48.3161Z" stroke="#323232" stroke-width="1.5" stroke-linecap="round" stroke-linejoin="round"/>
<path d="M49 25.6667V18.5267C49 15.9507 46.9117 13.86 44.3333 13.86H29.2343C28.462 13.86 27.7387 13.4773 27.3047 12.838L24.0263 8.01967C23.5923 7.38267 22.8713 7 22.099 7H11.6667C9.08833 7 7 9.08833 7 11.6667V39.6667C7 42.245 9.08833 44.3333 11.6667 44.3333H23.3333" stroke="#323232" stroke-width="1.5" stroke-linecap="round" stroke-linejoin="round"/>
</svg>
