<svg width="56" height="56" viewBox="0 0 56 56" fill="none" xmlns="http://www.w3.org/2000/svg">
<path fill-rule="evenodd" clip-rule="evenodd" d="M46.6667 28.0001H9.33333C8.04533 28.0001 7 26.9547 7 25.6667V21.0001C7 19.7121 8.04533 18.6667 9.33333 18.6667H46.6667C47.9547 18.6667 49 19.7121 49 21.0001V25.6667C49 26.9547 47.9547 28.0001 46.6667 28.0001Z" stroke="#323232" stroke-width="1.5" stroke-linecap="round" stroke-linejoin="round"/>
<path d="M32.7598 7.07007L39.6664 18.5967" stroke="#323232" stroke-width="1.5" stroke-linecap="round" stroke-linejoin="round"/>
<path d="M23.2402 7.07007L16.3335 18.5967" stroke="#323232" stroke-width="1.5" stroke-linecap="round" stroke-linejoin="round"/>
<path fill-rule="evenodd" clip-rule="evenodd" d="M39.6784 51.3427C33.2151 51.3427 28.0117 46.116 28.0117 39.676C28.0117 33.3527 33.3784 27.986 39.6784 28.0094C46.1184 28.0094 51.3451 33.236 51.3451 39.676C51.3451 46.116 46.1184 51.3427 39.6784 51.3427Z" stroke="#323232" stroke-width="1.5" stroke-linecap="round" stroke-linejoin="round"/>
<path d="M32.5803 48.9347H17.2549C15.6076 48.9347 14.1843 47.7867 13.8343 46.1767L9.89795 28" stroke="#323232" stroke-width="1.5" stroke-linecap="round" stroke-linejoin="round"/>
<path d="M44.3333 39.6667H35" stroke="#323232" stroke-width="1.5" stroke-linecap="round" stroke-linejoin="round"/>
<path d="M39.6665 44.3333L44.3332 39.6667L39.6665 35" stroke="#323232" stroke-width="1.5" stroke-linecap="round" stroke-linejoin="round"/>
</svg>
