<svg width="56" height="56" viewBox="0 0 56 56" fill="none" xmlns="http://www.w3.org/2000/svg">
<path d="M13.9275 15.4583L12.3711 8.45825H7.87012" stroke="#323232" stroke-width="1.5" stroke-linecap="round" stroke-linejoin="round"/>
<path fill-rule="evenodd" clip-rule="evenodd" d="M18.0391 34.6149L13.9277 15.4583H43.4631C44.9494 15.4583 46.0554 16.8279 45.7451 18.2816L42.2404 34.6149C42.0094 35.6906 41.0597 36.4583 39.9584 36.4583H20.3187C19.2197 36.4583 18.2701 35.6906 18.0391 34.6149Z" stroke="#323232" stroke-width="1.5" stroke-linecap="round" stroke-linejoin="round"/>
<path d="M40.7519 44.9167C40.2689 44.9167 39.8769 45.3087 39.8815 45.7917C39.8815 46.2747 40.2735 46.6667 40.7565 46.6667C41.2395 46.6667 41.6315 46.2747 41.6315 45.7917C41.6292 45.3087 41.2372 44.9167 40.7519 44.9167" stroke="#323232" stroke-width="1.5" stroke-linecap="round" stroke-linejoin="round"/>
<path d="M20.6642 44.9167C20.1812 44.9167 19.7892 45.3087 19.7938 45.7917C19.7915 46.2747 20.1835 46.6667 20.6665 46.6667C21.1495 46.6667 21.5415 46.2747 21.5415 45.7917C21.5415 45.3087 21.1495 44.9167 20.6642 44.9167" stroke="#323232" stroke-width="1.5" stroke-linecap="round" stroke-linejoin="round"/>
</svg>
