<svg width="55" height="55" viewBox="0 0 55 55" fill="none" xmlns="http://www.w3.org/2000/svg">
<path d="M29.7941 45.8333H16.0418C9.71454 45.8333 4.5835 40.7023 4.5835 34.375V17.4945C4.5835 16.2295 5.61016 15.2029 6.87516 15.2029H43.5418C44.8068 15.2029 45.8335 16.2295 45.8335 17.4945V29.7962" stroke="#323232" stroke-width="1.5" stroke-linecap="round" stroke-linejoin="round"/>
<path d="M34.3748 20.6249V9.16658C34.3748 6.63429 32.3238 4.58325 29.7915 4.58325H20.6248C18.0925 4.58325 16.0415 6.63429 16.0415 9.16658V20.6249" stroke="#323232" stroke-width="1.5" stroke-linecap="round" stroke-linejoin="round"/>
<path d="M47.0606 30.8561C51.5354 35.3308 51.5354 42.5858 47.0606 47.0606C42.5858 51.5354 35.3308 51.5354 30.8561 47.0606C26.3813 42.5858 26.3813 35.3308 30.8561 30.8561C35.3308 26.3813 42.5858 26.3813 47.0606 30.8561" stroke="#323232" stroke-width="1.5" stroke-linecap="round" stroke-linejoin="round"/>
<path d="M38.9583 34.375V43.5417" stroke="#323232" stroke-width="1.5" stroke-linecap="round" stroke-linejoin="round"/>
<path d="M43.5417 38.9583H34.375" stroke="#323232" stroke-width="1.5" stroke-linecap="round" stroke-linejoin="round"/>
</svg>
