<svg width="56" height="56" viewBox="0 0 56 56" fill="none" xmlns="http://www.w3.org/2000/svg">
<path d="M41.9998 51.3334C36.8432 51.3334 32.6665 47.1544 32.6665 42.0001C32.6665 36.8457 36.8432 32.6667 41.9998 32.6667C47.1542 32.6667 51.3332 36.8457 51.3332 42.0001C51.3332 47.1544 47.1542 51.3334 41.9998 51.3334" stroke="#323232" stroke-width="1.5" stroke-linecap="round" stroke-linejoin="round"/>
<path d="M25.6667 48.9999H11.6667C9.08833 48.9999 7 46.9116 7 44.3333V19.8333C7 17.9013 8.568 16.3333 10.5 16.3333H40.8333C42.7653 16.3333 44.3333 17.9013 44.3333 19.8333V25.6666" stroke="#323232" stroke-width="1.5" stroke-linecap="round" stroke-linejoin="round"/>
<path d="M16.3335 15.75V15.75C16.3335 10.9177 20.2512 7 25.0835 7H26.2502C31.0825 7 35.0002 10.9177 35.0002 15.75V15.75" stroke="#323232" stroke-width="1.5" stroke-linecap="round" stroke-linejoin="round"/>
<path d="M35.0002 15.75V16.3333" stroke="#323232" stroke-width="1.5" stroke-linecap="round" stroke-linejoin="round"/>
<path d="M45.6305 40.1846L41.0921 44.7229L38.3691 41.9999" stroke="#323232" stroke-width="1.5" stroke-linecap="round" stroke-linejoin="round"/>
</svg>
