<svg width="56" height="56" viewBox="0 0 56 56" fill="none" xmlns="http://www.w3.org/2000/svg">
<path d="M35.0729 21.7981C35.0729 21.3151 34.6809 20.9255 34.1979 20.9255C33.7149 20.9278 33.3229 21.3198 33.3229 21.8028C33.3229 22.2858 33.7149 22.6778 34.1979 22.6755C34.6809 22.6755 35.0729 22.2835 35.0729 21.8005" stroke="#323232" stroke-width="1.5" stroke-linecap="round" stroke-linejoin="round"/>
<path fill-rule="evenodd" clip-rule="evenodd" d="M8.16699 40.1219L21.5207 26.7379C19.64 21.8519 20.648 16.1072 24.5797 12.1662C29.8997 6.83456 38.526 6.83456 43.8437 12.1662C49.1637 17.4979 49.1637 26.1429 43.8437 31.4769C39.8747 35.4552 34.0693 36.4562 29.1647 34.5009L15.8623 47.8336H8.16699C8.16699 47.8336 8.16699 40.1219 8.16699 40.1219Z" stroke="#323232" stroke-width="1.5" stroke-linecap="round" stroke-linejoin="round"/>
</svg>
