<svg width="56" height="56" viewBox="0 0 56 56" fill="none" xmlns="http://www.w3.org/2000/svg">
<path fill-rule="evenodd" clip-rule="evenodd" d="M46.6673 46.6668V13.4822C46.6673 11.1908 44.81 9.3335 42.5187 9.3335H13.4827C11.1913 9.3335 9.33398 11.1908 9.33398 13.4822V38.3718C9.33398 40.6632 11.1913 42.5205 13.4827 42.5205H38.8903L46.6673 46.6668Z" stroke="#323232" stroke-width="1.3333" stroke-linecap="round" stroke-linejoin="round"/>
<path d="M27.9944 34.5121C27.7704 34.5121 27.5884 34.6941 27.5907 34.9181C27.5907 35.1421 27.7727 35.3241 27.9967 35.3241C28.2207 35.3241 28.4027 35.1421 28.4027 34.9181C28.4051 34.6941 28.2231 34.5121 27.9944 34.5121" stroke="#323232" stroke-width="1.5" stroke-linecap="round" stroke-linejoin="round"/>
<path d="M27.9979 28.1771V27.6171C27.9979 25.7808 29.1319 24.7868 30.2706 24.0238C31.3812 23.2771 32.4942 22.3018 32.4942 20.5028C32.4942 18.0201 30.4829 16.0088 28.0002 16.0088C25.5176 16.0088 23.5039 18.0155 23.5039 20.4981" stroke="#323232" stroke-width="1.5" stroke-linecap="round" stroke-linejoin="round"/>
</svg>
