<svg width="56" height="56" viewBox="0 0 56 56" fill="none" xmlns="http://www.w3.org/2000/svg">
<path fill-rule="evenodd" clip-rule="evenodd" d="M9.33268 21H46.666C49.2433 21 51.3327 23.0893 51.3327 25.6667V46.6667C51.3327 47.9553 50.288 49 48.9994 49H6.99935C5.71068 49 4.66602 47.9553 4.66602 46.6667V25.6667C4.66602 23.0893 6.75535 21 9.33268 21Z" stroke="#323232" stroke-width="1.5" stroke-linecap="round" stroke-linejoin="round"/>
<path fill-rule="evenodd" clip-rule="evenodd" d="M19.8333 7H36.1667C37.4553 7 38.5 8.04467 38.5 9.33333V21H17.5V9.33333C17.5 8.04467 18.5447 7 19.8333 7Z" stroke="#323232" stroke-width="1.5" stroke-linecap="round" stroke-linejoin="round"/>
<path d="M46.6667 21V16.3333C46.6667 15.0447 45.622 14 44.3333 14H38.5" stroke="#323232" stroke-width="1.5" stroke-linecap="round" stroke-linejoin="round"/>
<path d="M9.33398 21V16.3333C9.33398 15.0447 10.3787 14 11.6673 14H17.5007" stroke="#323232" stroke-width="1.5" stroke-linecap="round" stroke-linejoin="round"/>
<path d="M44.3327 49V37.3333C44.3327 36.0447 43.288 35 41.9994 35H13.9993C12.7107 35 11.666 36.0447 11.666 37.3333V49" stroke="#323232" stroke-width="1.5" stroke-linecap="round" stroke-linejoin="round"/>
<path d="M38.5 35V39.375C38.5 40.8247 37.3247 42 35.875 42H20.125C18.6753 42 17.5 40.8247 17.5 39.375V35" stroke="#323232" stroke-width="1.5" stroke-linecap="round" stroke-linejoin="round"/>
</svg>
