<svg width="56" height="56" viewBox="0 0 56 56" fill="none" xmlns="http://www.w3.org/2000/svg">
<path fill-rule="evenodd" clip-rule="evenodd" d="M18.6666 9.33337H37.3333C38.6219 9.33337 39.6666 10.378 39.6666 11.6667V25.6667C39.6666 32.11 34.4432 37.3334 27.9999 37.3334V37.3334C21.5566 37.3334 16.3333 32.11 16.3333 25.6667V11.6667C16.3333 10.378 17.3779 9.33337 18.6666 9.33337Z" stroke="#323232" stroke-width="1.5" stroke-linecap="round" stroke-linejoin="round"/>
<path d="M38.9043 29.8202L43.319 27.6129C46.0857 26.2295 47.8334 23.4018 47.8334 20.3085V17.189C47.8334 16.0614 46.9193 15.1473 45.7918 15.1473H39.6668" stroke="#323232" stroke-width="1.5" stroke-linecap="round" stroke-linejoin="round"/>
<path d="M27.9999 46.6667V37.3334" stroke="#323232" stroke-width="1.5" stroke-linecap="round" stroke-linejoin="round"/>
<path d="M37.3334 46.6667H18.6667" stroke="#323232" stroke-width="1.5" stroke-linecap="round" stroke-linejoin="round"/>
<path d="M17.0959 29.8202L12.6812 27.6129C9.91448 26.2295 8.16678 23.4018 8.16675 20.3085V17.189C8.16675 16.0614 9.08083 15.1473 10.2084 15.1473H16.3334" stroke="#323232" stroke-width="1.5" stroke-linecap="round" stroke-linejoin="round"/>
</svg>
