<svg width="56" height="56" viewBox="0 0 56 56" fill="none" xmlns="http://www.w3.org/2000/svg">
<path d="M40.9517 45.6423C39.8713 46.3937 38.7023 47.0517 37.4377 47.5743C35.0927 48.5473 32.6637 49 30.272 49C20.633 49 12.702 41.7177 11.666 32.354" stroke="#323232" stroke-width="1.5" stroke-linecap="round" stroke-linejoin="round"/>
<path d="M38.5956 30.2725V33.3945C38.5956 36.2692 40.9242 38.5955 43.7966 38.5955C46.6712 38.5955 48.9976 36.2668 48.9976 33.3945V30.2725C48.9976 20.6335 41.7152 12.7025 32.3516 11.6665" stroke="#323232" stroke-width="1.5" stroke-linecap="round" stroke-linejoin="round"/>
<path d="M15.7493 26.8332C9.62902 26.8332 4.66602 21.8702 4.66602 15.7498C4.66602 9.6295 9.62902 4.6665 15.7493 4.6665C21.8697 4.6665 26.8327 9.6295 26.8327 15.7498C26.8327 21.8702 21.8697 26.8332 15.7493 26.8332" stroke="#323232" stroke-width="1.5" stroke-linecap="round" stroke-linejoin="round"/>
<path d="M12.623 12.6235L18.8764 18.8769" stroke="#323232" stroke-width="1.5" stroke-linecap="round" stroke-linejoin="round"/>
<path d="M12.623 18.8769L18.8764 12.6235" stroke="#323232" stroke-width="1.5" stroke-linecap="round" stroke-linejoin="round"/>
<path d="M22.2441 32.354C23.1728 35.938 26.3998 38.5957 30.2731 38.5957C34.8698 38.5957 38.5961 34.8693 38.5961 30.2727C38.5961 26.3993 35.9361 23.1723 32.3545 22.2437" stroke="#323232" stroke-width="1.5" stroke-linecap="round" stroke-linejoin="round"/>
</svg>
