<svg width="56" height="56" viewBox="0 0 56 56" fill="none" xmlns="http://www.w3.org/2000/svg">
<path d="M32.4667 38.7802C31.0037 39.3845 29.4893 39.6668 28.0007 39.6668C21.5583 39.6668 16.334 34.4425 16.334 28.0002C16.334 21.5578 21.5583 16.3335 28.0007 16.3335C34.443 16.3335 39.6673 21.5578 39.6673 28.0002V29.9438C39.6673 31.9575 38.034 33.5885 36.0227 33.5885C34.0113 33.5885 32.378 31.9552 32.378 29.9438V28.0002C32.378 25.5828 30.4203 23.6252 28.003 23.6252V23.6252C25.5857 23.6252 23.628 25.5828 23.628 28.0002C23.628 30.4175 25.5857 32.3752 28.003 32.3752C30.4203 32.3752 32.378 30.4175 32.378 28.0002" stroke="#323232" stroke-width="1.5" stroke-linecap="round" stroke-linejoin="round"/>
<path fill-rule="evenodd" clip-rule="evenodd" d="M11.6667 7H44.3333C46.9117 7 49 9.08833 49 11.6667V44.3333C49 46.9117 46.9117 49 44.3333 49H11.6667C9.08833 49 7 46.9117 7 44.3333V11.6667C7 9.08833 9.08833 7 11.6667 7Z" stroke="#323232" stroke-width="1.5" stroke-linecap="round" stroke-linejoin="round"/>
</svg>
