<svg width="55" height="55" viewBox="0 0 55 55" fill="none" xmlns="http://www.w3.org/2000/svg">
<path d="M41.2503 34.375V36.6667" stroke="#323232" stroke-width="1.5" stroke-linecap="round" stroke-linejoin="round"/>
<path d="M41.2503 45.8335V48.1252" stroke="#323232" stroke-width="1.5" stroke-linecap="round" stroke-linejoin="round"/>
<path d="M35.2913 37.8127L37.3538 38.9585" stroke="#323232" stroke-width="1.5" stroke-linecap="round" stroke-linejoin="round"/>
<path d="M45.1458 43.5417L47.2083 44.6875" stroke="#323232" stroke-width="1.5" stroke-linecap="round" stroke-linejoin="round"/>
<path d="M35.2913 44.6875L37.3538 43.5417" stroke="#323232" stroke-width="1.5" stroke-linecap="round" stroke-linejoin="round"/>
<path d="M45.1458 38.9585L47.2083 37.8127" stroke="#323232" stroke-width="1.5" stroke-linecap="round" stroke-linejoin="round"/>
<path d="M44.4587 38.0415C46.292 39.8748 46.292 42.6248 44.4587 44.4582C42.6253 46.2915 39.8753 46.2915 38.042 44.4582C36.2087 42.6248 36.2087 39.8748 38.042 38.0415C39.8753 36.2082 42.6253 36.2082 44.4587 38.0415" stroke="#323232" stroke-width="1.5" stroke-linecap="round" stroke-linejoin="round"/>
<path d="M34.3747 11.9165C38.2705 15.8123 38.2705 21.9998 34.3747 25.6665C30.4788 29.3332 24.2913 29.5623 20.6247 25.6665C16.958 21.7707 16.7288 15.5832 20.6247 11.9165C24.5205 8.24984 30.4788 8.24984 34.3747 11.9165" stroke="#323232" stroke-width="1.5" stroke-linecap="round" stroke-linejoin="round"/>
<path d="M9.16699 45.8335C9.16699 40.1043 13.7503 35.521 19.4795 35.521H25.4378" stroke="#323232" stroke-width="1.5" stroke-linecap="round" stroke-linejoin="round"/>
</svg>
