<svg width="56" height="56" viewBox="0 0 56 56" fill="none" xmlns="http://www.w3.org/2000/svg">
<path d="M24.5 43.1665L17.5 43.1668" stroke="#323232" stroke-width="1.5" stroke-linecap="round" stroke-linejoin="round"/>
<path d="M32.6668 37.3333H42.0002C44.5775 37.3333 46.6668 35.244 46.6668 32.6666V9.33329C46.6668 6.75596 44.5775 4.66663 42.0002 4.66663H28.0002C25.4228 4.66663 23.3335 6.75596 23.3335 9.33329V16.3333" stroke="#323232" stroke-width="1.5" stroke-linecap="round" stroke-linejoin="round"/>
<path fill-rule="evenodd" clip-rule="evenodd" d="M30.6665 16.3334C31.7711 16.3334 32.6665 17.2288 32.6665 18.3334L32.6665 47C32.6665 48.1046 31.7711 49 30.6665 49H11.3332C10.2286 49 9.33317 48.1046 9.33317 47L9.33317 18.3334C9.33317 17.2288 10.2286 16.3334 11.3332 16.3334H30.6665Z" stroke="#323232" stroke-width="1.5" stroke-linecap="round" stroke-linejoin="round"/>
</svg>
