<svg width="56" height="56" viewBox="0 0 56 56" fill="none" xmlns="http://www.w3.org/2000/svg">
<path d="M14.294 32.2L7 39.6666L12.8333 43.1666L16.3333 49L25.431 39.445" stroke="#323232" stroke-width="1.5" stroke-linecap="round" stroke-linejoin="round"/>
<path d="M30.5691 39.445L39.6668 49L43.1668 43.1666L49.0001 39.6666L41.7061 32.2" stroke="#323232" stroke-width="1.5" stroke-linecap="round" stroke-linejoin="round"/>
<path d="M39.5492 11.7839C45.9278 18.1625 45.9278 28.5042 39.5492 34.8827C33.1707 41.2613 22.829 41.2613 16.4504 34.8827C10.0719 28.5042 10.0719 18.1625 16.4504 11.7839C22.829 5.40536 33.1707 5.40536 39.5492 11.7839" stroke="#323232" stroke-width="1.5" stroke-linecap="round" stroke-linejoin="round"/>
<path fill-rule="evenodd" clip-rule="evenodd" d="M27.9978 29.3627L32.1908 31.5654C33.0075 31.9947 33.9618 31.3017 33.8055 30.3917L33.0051 25.7227L36.3978 22.4187C37.0581 21.7747 36.6941 20.6524 35.7818 20.5194L31.0941 19.838L28.9988 15.589C28.5905 14.7607 27.4121 14.7607 27.0038 15.589L24.9085 19.838L20.2185 20.5217C19.3061 20.6547 18.9421 21.777 19.6025 22.421L22.9951 25.725L22.1948 30.394C22.0385 31.304 22.9928 31.997 23.8095 31.5677L28.0025 29.365H27.9978V29.3627Z" stroke="#323232" stroke-width="1.5" stroke-linecap="round" stroke-linejoin="round"/>
</svg>
