<svg width="56" height="56" viewBox="0 0 56 56" fill="none" xmlns="http://www.w3.org/2000/svg">
<path d="M23.3333 35H16.3333C11.1787 35 7 39.1787 7 44.3333V46.6667" stroke="#323232" stroke-width="1.5" stroke-linecap="round" stroke-linejoin="round"/>
<path d="M46.6667 49H32.6667" stroke="#323232" stroke-width="1.5" stroke-linecap="round" stroke-linejoin="round"/>
<path fill-rule="evenodd" clip-rule="evenodd" d="M33.3502 35.7803L40.447 28.6834C40.8846 28.2458 41.4781 28 42.097 28C42.7158 28 43.3093 28.2458 43.7469 28.6834L45.9834 30.9199C46.8946 31.8312 46.8946 33.3085 45.9834 34.2198L38.8865 41.3166C38.4489 41.7542 37.8554 42 37.2365 42H33.8334C33.1891 42 32.6667 41.4777 32.6667 40.8333V37.4302C32.6668 36.8114 32.9126 36.2179 33.3502 35.7803Z" stroke="#323232" stroke-width="1.5" stroke-linecap="round" stroke-linejoin="round"/>
<circle cx="25.6666" cy="16.3333" r="9.33333" stroke="#323232" stroke-width="1.5" stroke-linecap="round" stroke-linejoin="round"/>
</svg>
