<svg width="55" height="55" viewBox="0 0 55 55" fill="none" xmlns="http://www.w3.org/2000/svg">
<path d="M25.2083 34.375H16.0417C10.9791 34.375 6.875 38.4791 6.875 43.5417V45.8333" stroke="#323232" stroke-width="1.5" stroke-linecap="round" stroke-linejoin="round"/>
<circle cx="25.2084" cy="16.0417" r="9.16667" stroke="#323232" stroke-width="1.5" stroke-linecap="round" stroke-linejoin="round"/>
<path d="M50.4166 37.8125C50.4166 42.2423 46.8255 45.8333 42.3957 45.8333C41.599 45.8221 40.8084 45.691 40.0508 45.4442" stroke="#323232" stroke-width="1.5" stroke-linecap="round" stroke-linejoin="round"/>
<path d="M42.3958 29.7916C46.8255 29.7916 50.4166 33.3827 50.4166 37.8125" stroke="#323232" stroke-width="1.5" stroke-linecap="round" stroke-linejoin="round"/>
<path d="M34.762 40.1507C34.5166 39.3951 34.3862 38.6069 34.375 37.8125C34.375 33.3827 37.966 29.7916 42.3958 29.7916" stroke="#323232" stroke-width="1.5" stroke-linecap="round" stroke-linejoin="round"/>
<path d="M34.7621 40.1508L30.4157 44.5039C30.017 44.9058 29.7928 45.4487 29.7917 46.0149V48.2791C29.7918 49.4596 30.7487 50.4166 31.9293 50.4167H34.2032C34.7707 50.4174 35.3148 50.1909 35.7142 49.7878L40.051 45.4442" stroke="#323232" stroke-width="1.5" stroke-linecap="round" stroke-linejoin="round"/>
<path d="M42.5104 37.8126C42.5103 37.8758 42.459 37.9271 42.3958 37.927C42.3325 37.927 42.2813 37.8758 42.2813 37.8125C42.2812 37.7493 42.3324 37.698 42.3957 37.6979C42.4261 37.6978 42.4553 37.7099 42.4769 37.7314C42.4984 37.753 42.5105 37.7822 42.5104 37.8126" stroke="#323232" stroke-width="1.5" stroke-linecap="round" stroke-linejoin="round"/>
</svg>
