<svg width="56" height="56" viewBox="0 0 56 56" fill="none" xmlns="http://www.w3.org/2000/svg">
<rect x="6.99023" y="8.83984" width="42.0175" height="37.3489" rx="3.6" stroke="#323232" stroke-width="1.5" stroke-linecap="round" stroke-linejoin="round"/>
<path d="M28.5828 27.5329C28.5828 27.8552 28.3215 28.1165 27.9992 28.1165C27.6769 28.1165 27.4156 27.8552 27.4156 27.5329C27.4156 27.2106 27.6769 26.9493 27.9992 26.9493C28.3215 26.9493 28.5828 27.2106 28.5828 27.5329" stroke="#323232" stroke-width="1.5" stroke-linecap="round" stroke-linejoin="round"/>
<path d="M19.2468 27.5143C19.2468 27.8366 18.9855 28.0979 18.6632 28.0979C18.3409 28.0979 18.0797 27.8366 18.0797 27.5143C18.0797 27.192 18.3409 26.9307 18.6632 26.9307C18.9855 26.9307 19.2468 27.192 19.2468 27.5143" stroke="#323232" stroke-width="1.5" stroke-linecap="round" stroke-linejoin="round"/>
<path d="M37.9207 27.4909C37.9207 27.8132 37.6594 28.0745 37.3371 28.0745C37.0148 28.0745 36.7535 27.8132 36.7535 27.4909C36.7535 27.1686 37.0148 26.9073 37.3371 26.9073C37.6594 26.9073 37.9207 27.1686 37.9207 27.4909" stroke="#323232" stroke-width="1.5" stroke-linecap="round" stroke-linejoin="round"/>
</svg>
