<svg width="56" height="56" viewBox="0 0 56 56" fill="none" xmlns="http://www.w3.org/2000/svg">
<path d="M32.9497 23.0502C35.6834 25.7839 35.6834 30.2161 32.9497 32.9497C30.2161 35.6834 25.7839 35.6834 23.0502 32.9497C20.3166 30.2161 20.3166 25.7839 23.0502 23.0502C25.7839 20.3166 30.2161 20.3166 32.9497 23.0502" stroke="#323232" stroke-width="1.5" stroke-linecap="round" stroke-linejoin="round"/>
<path fill-rule="evenodd" clip-rule="evenodd" d="M37.7533 43.6917V43.6917C38.927 44.8653 40.8333 44.8653 42.007 43.6917L43.6917 42.007C44.8653 40.8333 44.8653 38.927 43.6917 37.7533V37.7533C42.8003 36.862 42.539 35.525 43.029 34.363C43.0803 34.2393 43.1317 34.1157 43.1807 33.9897C43.6077 32.9023 44.667 32.2023 45.8337 32.2023H45.99C47.6513 32.2023 48.9977 30.856 48.9977 29.1947V26.8123C48.9977 25.151 47.6513 23.8047 45.99 23.8047H45.8337C44.667 23.8047 43.6077 23.1023 43.1807 22.0173C43.1317 21.8913 43.0803 21.7677 43.029 21.644C42.539 20.482 42.8003 19.145 43.6917 18.2537V18.2537C44.8653 17.08 44.8653 15.1737 43.6917 14L42.007 12.3153C40.8333 11.1417 38.927 11.1417 37.7533 12.3153V12.3153C36.862 13.2067 35.525 13.468 34.363 12.978C34.2393 12.9267 34.1157 12.8753 33.9897 12.8263C32.9023 12.3923 32.2 11.3307 32.2 10.164V10.0077C32.2 8.34633 30.8537 7 29.1923 7H26.81C25.1463 7 23.8 8.34633 23.8 10.0077V10.164C23.8 11.3307 23.0977 12.39 22.0127 12.817C21.8867 12.8683 21.763 12.9173 21.6393 12.971C20.4773 13.461 19.1403 13.1997 18.249 12.3083V12.3083C17.0753 11.1347 15.169 11.1347 13.9953 12.3083L12.3083 13.993C11.1347 15.1667 11.1347 17.073 12.3083 18.2467V18.2467C13.1997 19.138 13.461 20.475 12.971 21.637C12.9173 21.763 12.8683 21.8867 12.8193 22.0127C12.3923 23.0977 11.3307 23.8 10.164 23.8H10.0077C8.34633 23.8 7 25.1463 7 26.8077V29.19C7 30.8537 8.34633 32.2 10.0077 32.2H10.164C11.3307 32.2 12.39 32.9023 12.817 33.9873C12.866 34.1133 12.9173 34.237 12.9687 34.3607C13.4587 35.5227 13.1973 36.8597 12.306 37.751V37.751C11.1323 38.9247 11.1323 40.831 12.306 42.0047L13.9907 43.6893C15.1643 44.863 17.0707 44.863 18.2443 43.6893V43.6893C19.1357 42.798 20.4727 42.5367 21.6347 43.0267C21.7583 43.078 21.882 43.1293 22.008 43.1783C23.0953 43.6053 23.7953 44.6647 23.7953 45.8313V45.9877C23.7953 47.649 25.1417 48.9953 26.803 48.9953H29.1853C30.8467 48.9953 32.193 47.649 32.193 45.9877V45.8313C32.193 44.6647 32.8953 43.6053 33.9803 43.1783C34.1063 43.1293 34.23 43.078 34.3537 43.0267C35.5227 42.539 36.8597 42.8003 37.7533 43.6917V43.6917Z" stroke="#323232" stroke-width="1.5" stroke-linecap="round" stroke-linejoin="round"/>
</svg>
