<svg width="36" height="36" viewBox="0 0 36 36" fill="none" xmlns="http://www.w3.org/2000/svg">
<path fill-rule="evenodd" clip-rule="evenodd" d="M27.0001 18C27.0001 18.2983 26.8815 18.5845 26.6706 18.7955C26.4596 19.0064 26.1734 19.125 25.8751 19.125H12.8408L17.6716 23.9535C17.7762 24.0581 17.8591 24.1822 17.9157 24.3189C17.9723 24.4556 18.0015 24.602 18.0015 24.75C18.0015 24.8979 17.9723 25.0444 17.9157 25.181C17.8591 25.3177 17.7762 25.4419 17.6716 25.5465C17.567 25.6511 17.4428 25.734 17.3061 25.7906C17.1695 25.8472 17.023 25.8764 16.8751 25.8764C16.7271 25.8764 16.5807 25.8472 16.444 25.7906C16.3073 25.734 16.1832 25.6511 16.0786 25.5465L9.32856 18.7965C9.22379 18.692 9.14067 18.5678 9.08395 18.4311C9.02724 18.2945 8.99805 18.1479 8.99805 18C8.99805 17.852 9.02724 17.7055 9.08395 17.5688C9.14067 17.4321 9.22379 17.308 9.32856 17.2035L16.0786 10.4535C16.2898 10.2422 16.5763 10.1235 16.8751 10.1235C17.1738 10.1235 17.4603 10.2422 17.6716 10.4535C17.8828 10.6647 18.0015 10.9512 18.0015 11.25C18.0015 11.5487 17.8828 11.8352 17.6716 12.0465L12.8408 16.875H25.8751C26.1734 16.875 26.4596 16.9935 26.6706 17.2045C26.8815 17.4154 27.0001 17.7016 27.0001 18Z" fill="black"/>
</svg>
