<svg width="39" height="39" viewBox="0 0 39 39" fill="none" xmlns="http://www.w3.org/2000/svg">
<path d="M19.5004 3.8999C23.6378 3.8999 27.6057 5.54347 30.5313 8.46904C33.4568 11.3946 35.1004 15.3625 35.1004 19.4999C35.1004 23.6373 33.4568 27.6052 30.5313 30.5308C27.6057 33.4563 23.6378 35.0999 19.5004 35.0999C15.363 35.0999 11.3951 33.4563 8.46953 30.5308C5.54396 27.6052 3.90039 23.6373 3.90039 19.4999C3.90039 15.3625 5.54396 11.3946 8.46953 8.46904C11.3951 5.54347 15.363 3.8999 19.5004 3.8999ZM19.5004 5.8499C17.7078 5.8499 15.9329 6.20297 14.2768 6.88895C12.6207 7.57492 11.1159 8.58038 9.84838 9.84789C8.58086 11.1154 7.57541 12.6202 6.88943 14.2763C6.20346 15.9324 5.85039 17.7074 5.85039 19.4999C5.85039 21.2924 6.20346 23.0674 6.88943 24.7235C7.57541 26.3796 8.58086 27.8844 9.84838 29.1519C11.1159 30.4194 12.6207 31.4249 14.2768 32.1109C15.9329 32.7968 17.7078 33.1499 19.5004 33.1499C23.1206 33.1499 26.5925 31.7118 29.1524 29.1519C31.7123 26.592 33.1504 23.1201 33.1504 19.4999C33.1504 15.8797 31.7123 12.4078 29.1524 9.84789C26.5925 7.28802 23.1206 5.8499 19.5004 5.8499ZM19.5004 24.3749C19.8883 24.3749 20.2603 24.529 20.5345 24.8033C20.8088 25.0775 20.9629 25.4495 20.9629 25.8374C20.9629 26.2253 20.8088 26.5973 20.5345 26.8715C20.2603 27.1458 19.8883 27.2999 19.5004 27.2999C19.1125 27.2999 18.7405 27.1458 18.4662 26.8715C18.192 26.5973 18.0379 26.2253 18.0379 25.8374C18.0379 25.4495 18.192 25.0775 18.4662 24.8033C18.7405 24.529 19.1125 24.3749 19.5004 24.3749ZM19.5004 11.6999C19.7286 11.6998 19.9496 11.7798 20.1249 11.9259C20.3002 12.072 20.4187 12.2749 20.4598 12.4994L20.4754 12.6749V21.4499C20.4758 21.6935 20.385 21.9285 20.2209 22.1086C20.0567 22.2886 19.8311 22.4007 19.5885 22.4227C19.3458 22.4447 19.1037 22.3751 18.9099 22.2275C18.716 22.08 18.5844 21.8652 18.541 21.6254L18.5254 21.4499V12.6749C18.5254 12.4163 18.6281 12.1683 18.811 11.9855C18.9938 11.8026 19.2418 11.6999 19.5004 11.6999Z" fill="black"/>
</svg>
