<svg width="56" height="56" viewBox="0 0 56 56" fill="none" xmlns="http://www.w3.org/2000/svg">
<path d="M21 42.0002H28" stroke="#323232" stroke-width="1.5" stroke-linecap="round" stroke-linejoin="round"/>
<path d="M7 41.9998L9.33333 44.3332L14 39.6665" stroke="#323232" stroke-width="1.5" stroke-linecap="round" stroke-linejoin="round"/>
<path d="M21 26.8332H28" stroke="#323232" stroke-width="1.5" stroke-linecap="round" stroke-linejoin="round"/>
<path d="M7 26.8333L9.33333 29.1667L14 24.5" stroke="#323232" stroke-width="1.5" stroke-linecap="round" stroke-linejoin="round"/>
<path d="M21 11.6667H28" stroke="#323232" stroke-width="1.5" stroke-linecap="round" stroke-linejoin="round"/>
<path d="M7 11.6668L9.33333 14.0002L14 9.3335" stroke="#323232" stroke-width="1.5" stroke-linecap="round" stroke-linejoin="round"/>
<path fill-rule="evenodd" clip-rule="evenodd" d="M37.334 40.0556C37.334 41.8226 37.9071 43.5419 38.9673 44.9556L41.3007 48.0667C41.7413 48.6542 42.4329 49 43.1673 49C43.9018 49 44.5933 48.6542 45.034 48.0667L47.4451 44.8518C48.4548 43.5055 49.0007 41.8681 49.0007 40.1852V12.8333C49.0007 9.61167 46.389 7 43.1673 7V7C39.9457 7 37.334 9.61167 37.334 12.8333V40.0556Z" stroke="#323232" stroke-width="1.5" stroke-linecap="round" stroke-linejoin="round"/>
<path d="M37.334 18.6667H49.0007" stroke="#323232" stroke-width="1.5" stroke-linecap="round" stroke-linejoin="round"/>
</svg>
