<svg width="56" height="56" viewBox="0 0 56 56" fill="none" xmlns="http://www.w3.org/2000/svg">
<path fill-rule="evenodd" clip-rule="evenodd" d="M37.3333 49H18.6667C16.0883 49 14 46.9117 14 44.3333V11.6667C14 9.08833 16.0883 7 18.6667 7H37.3333C39.9117 7 42 9.08833 42 11.6667V44.3333C42 46.9117 39.9117 49 37.3333 49Z" stroke="#323232" stroke-width="1.5" stroke-linecap="round" stroke-linejoin="round"/>
<path d="M27.9983 40.2498C27.6763 40.2498 27.415 40.5112 27.4173 40.8332C27.4173 41.1552 27.6787 41.4165 28.0007 41.4165C28.3227 41.4165 28.584 41.1552 28.584 40.8332C28.584 40.5112 28.3227 40.2498 27.9983 40.2498" stroke="#323232" stroke-width="1.5" stroke-linecap="round" stroke-linejoin="round"/>
<path d="M25.084 14.0002H30.9173" stroke="#323232" stroke-width="1.5" stroke-linecap="round" stroke-linejoin="round"/>
</svg>
