<svg width="56" height="56" viewBox="0 0 56 56" fill="none" xmlns="http://www.w3.org/2000/svg">
<path fill-rule="evenodd" clip-rule="evenodd" d="M42.0045 32.6686H13.9928C11.4134 32.6686 9.32422 30.5794 9.32422 28V11.6598C9.32422 9.08041 11.4134 6.99121 13.9928 6.99121H42.0045C44.5839 6.99121 46.6731 9.08041 46.6731 11.6598V28C46.6731 30.5794 44.5839 32.6686 42.0045 32.6686Z" stroke="#323232" stroke-width="1.5" stroke-linecap="round" stroke-linejoin="round"/>
<path fill-rule="evenodd" clip-rule="evenodd" d="M42.3367 32.6685H13.6621C11.5775 32.6685 9.74512 34.0504 9.17321 36.0555L7.17271 43.0585C6.32069 46.0394 8.55929 49.0086 11.6616 49.0086H44.3372C47.4395 49.0086 49.6781 46.0394 48.8261 43.0585L46.8256 36.0555C46.2513 34.0504 44.4212 32.6685 42.3367 32.6685Z" stroke="#323232" stroke-width="1.5" stroke-linecap="round" stroke-linejoin="round"/>
<path d="M23.3301 42.006H32.6673" stroke="#323232" stroke-width="1.5" stroke-linecap="round" stroke-linejoin="round"/>
</svg>
