<svg width="56" height="56" viewBox="0 0 56 56" fill="none" xmlns="http://www.w3.org/2000/svg">
<rect x="6.99121" y="8.83984" width="42.0175" height="37.3489" rx="3.6" stroke="#323232" stroke-width="1.5" stroke-linecap="round" stroke-linejoin="round"/>
<path d="M28.5837 27.5329C28.5837 27.8552 28.3225 28.1165 28.0002 28.1165C27.6779 28.1165 27.4166 27.8552 27.4166 27.5329C27.4166 27.2106 27.6779 26.9493 28.0002 26.9493C28.3225 26.9493 28.5837 27.2106 28.5837 27.5329" stroke="#323232" stroke-width="1.5" stroke-linecap="round" stroke-linejoin="round"/>
<path d="M19.2458 27.5143C19.2458 27.8366 18.9846 28.0979 18.6623 28.0979C18.34 28.0979 18.0787 27.8366 18.0787 27.5143C18.0787 27.192 18.34 26.9307 18.6623 26.9307C18.9846 26.9307 19.2458 27.192 19.2458 27.5143" stroke="#323232" stroke-width="1.5" stroke-linecap="round" stroke-linejoin="round"/>
<path d="M37.9207 27.4909C37.9207 27.8132 37.6594 28.0745 37.3371 28.0745C37.0148 28.0745 36.7535 27.8132 36.7535 27.4909C36.7535 27.1686 37.0148 26.9073 37.3371 26.9073C37.6594 26.9073 37.9207 27.1686 37.9207 27.4909" stroke="#323232" stroke-width="1.5" stroke-linecap="round" stroke-linejoin="round"/>
</svg>
