<svg width="56" height="56" viewBox="0 0 56 56" fill="none" xmlns="http://www.w3.org/2000/svg">
<path fill-rule="evenodd" clip-rule="evenodd" d="M42.006 49.0086H13.9943C12.756 49.009 11.5683 48.5172 10.6927 47.6416C9.8171 46.766 9.32568 45.5783 9.32568 44.34V19.8298C9.32639 17.8963 10.8936 16.3291 12.8271 16.3284H43.1731C45.1066 16.3291 46.6739 17.8963 46.6746 19.8298V44.34C46.6746 45.5783 46.1832 46.766 45.3075 47.6416C44.4319 48.5172 43.2443 49.009 42.006 49.0086Z" stroke="#323232" stroke-width="1.5" stroke-linecap="round" stroke-linejoin="round"/>
<path d="M18.6626 16.3284V15.7449V15.7449C18.6626 10.9104 22.5818 6.99133 27.4162 6.99121H28.5834C33.4179 6.99133 37.337 10.9104 37.337 15.7449V15.7449V16.3284" stroke="#323232" stroke-width="1.5" stroke-linecap="round" stroke-linejoin="round"/>
<path d="M30.9178 30.2087L25.082 36.0445" stroke="#323232" stroke-width="1.5" stroke-linecap="round" stroke-linejoin="round"/>
<path d="M25.082 30.2087L30.9178 36.0445" stroke="#323232" stroke-width="1.5" stroke-linecap="round" stroke-linejoin="round"/>
</svg>
