<svg width="56" height="56" viewBox="0 0 56 56" fill="none" xmlns="http://www.w3.org/2000/svg">
<path d="M24.6989 38.3039C23.3637 36.9687 22.9642 34.9606 23.6868 33.216C24.4094 31.4715 26.1117 30.334 28 30.334C29.8883 30.334 31.5907 31.4715 32.3133 33.216C33.0359 34.9606 32.6364 36.9687 31.3012 38.3039C30.4257 39.1795 29.2382 39.6714 28 39.6714C26.7619 39.6714 25.5744 39.1795 24.6989 38.3039" stroke="#323232" stroke-width="1.5" stroke-linecap="round" stroke-linejoin="round"/>
<path d="M40.8385 39.6715V30.3342" stroke="#323232" stroke-width="1.5" stroke-linecap="round" stroke-linejoin="round"/>
<path d="M15.1613 39.6715V30.3342" stroke="#323232" stroke-width="1.5" stroke-linecap="round" stroke-linejoin="round"/>
<path d="M27.9999 18.6627V6.99121" stroke="#323232" stroke-width="1.5" stroke-linecap="round" stroke-linejoin="round"/>
<path d="M32.6685 11.6598L27.9999 6.99121L23.3313 11.6598" stroke="#323232" stroke-width="1.5" stroke-linecap="round" stroke-linejoin="round"/>
<path d="M37.3372 20.9971H44.3401C45.5784 20.9967 46.7661 21.4885 47.6417 22.3641C48.5173 23.2397 49.0087 24.4274 49.0087 25.6657V44.3401C49.0087 45.5784 48.5173 46.7661 47.6417 47.6417C46.7661 48.5173 45.5784 49.0091 44.3401 49.0087H11.6598C10.4215 49.0091 9.23385 48.5173 8.35824 47.6417C7.48263 46.7661 6.99121 45.5784 6.99121 44.3401V25.6657C6.99121 24.4274 7.48263 23.2397 8.35824 22.3641C9.23385 21.4885 10.4215 20.9967 11.6598 20.9971H18.6627" stroke="#323232" stroke-width="1.5" stroke-linecap="round" stroke-linejoin="round"/>
</svg>
