<svg width="56" height="56" viewBox="0 0 56 56" fill="none" xmlns="http://www.w3.org/2000/svg">
<path d="M28.0003 2.9165C32.9613 2.9165 37.8109 4.38762 41.9359 7.14381C46.0608 9.9 49.2758 13.8175 51.1743 18.4009C53.0728 22.9842 53.5695 28.0277 52.6017 32.8934C51.6338 37.759 49.2449 42.2285 45.7369 45.7364C42.229 49.2444 37.7595 51.6334 32.8938 52.6012C28.0282 53.569 22.9847 53.0723 18.4013 51.1738C13.818 49.2753 9.90049 46.0603 7.1443 41.9354C4.3881 37.8105 2.91699 32.9609 2.91699 27.9998C2.92008 21.3483 5.56378 14.97 10.2671 10.2667C14.9705 5.56329 21.3488 2.9196 28.0003 2.9165V2.9165Z" stroke="black" stroke-linecap="round" stroke-linejoin="round"/>
<path d="M27.9997 30.9168C29.6105 30.9168 30.9163 29.611 30.9163 28.0002C30.9163 26.3893 29.6105 25.0835 27.9997 25.0835C26.3888 25.0835 25.083 26.3893 25.083 28.0002C25.083 29.611 26.3888 30.9168 27.9997 30.9168Z" stroke="black" stroke-linecap="round" stroke-linejoin="round"/>
<path d="M30.45 29.575L44.6833 38.675M28 25.0833V13.3467V25.0833Z" stroke="black" stroke-linecap="round" stroke-linejoin="round"/>
</svg>
