<svg width="56" height="56" viewBox="0 0 56 56" fill="none" xmlns="http://www.w3.org/2000/svg">
<path d="M29.095 7.053C32.277 10.235 32.277 15.394 29.095 18.576C25.9131 21.758 20.754 21.758 17.572 18.576C14.39 15.394 14.39 10.235 17.572 7.053C20.754 3.87101 25.9131 3.87101 29.095 7.053" stroke="#323232" stroke-width="1.5" stroke-linecap="round" stroke-linejoin="round"/>
<path d="M33.514 29.8573C30.483 28.6463 26.927 27.979 23.3337 27.979C13.8883 27.979 4.66699 32.5687 4.66699 39.627V41.9603C4.66699 43.2483 5.71233 44.2937 7.00033 44.2937H28.964" stroke="#323232" stroke-width="1.5" stroke-linecap="round" stroke-linejoin="round"/>
<path d="M39.6676 51.3333C33.2253 51.3333 28.001 46.1113 28.001 39.6667C28.001 33.3573 33.3676 27.993 39.677 28C46.117 28.0047 51.3343 33.2267 51.3343 39.6667C51.3343 46.109 46.1123 51.3333 39.6676 51.3333" stroke="#323232" stroke-width="1.5" stroke-linecap="round" stroke-linejoin="round"/>
<path d="M42.957 36.3765L36.377 42.9565" stroke="#323232" stroke-width="1.5" stroke-linecap="round" stroke-linejoin="round"/>
<path d="M42.957 42.9565L36.377 36.3765" stroke="#323232" stroke-width="1.5" stroke-linecap="round" stroke-linejoin="round"/>
</svg>
