<svg width="56" height="56" viewBox="0 0 56 56" fill="none" xmlns="http://www.w3.org/2000/svg">
<path d="M32.1251 23.875C34.4032 26.1531 34.4032 29.8466 32.1251 32.1246C29.847 34.4027 26.1536 34.4027 23.8755 32.1246C21.5975 29.8466 21.5975 26.1531 23.8755 23.875C26.1536 21.597 29.847 21.597 32.1251 23.875" stroke="#323232" stroke-width="1.5" stroke-linecap="round" stroke-linejoin="round"/>
<path fill-rule="evenodd" clip-rule="evenodd" d="M34.648 9.61347L36.0084 10.0661C37.2544 10.4815 38.0967 11.6481 38.0967 12.9618V14.9148C38.0967 16.5761 39.422 17.9318 41.0834 17.9668L43.0387 18.0088C44.1704 18.0321 45.197 18.6831 45.7034 19.6958L46.345 20.9791C46.933 22.1551 46.702 23.5738 45.7734 24.5025L44.392 25.8838C43.2184 27.0575 43.1974 28.9545 44.3454 30.1538L45.6987 31.5678C46.4827 32.3868 46.7487 33.5698 46.3894 34.6455L45.9367 36.0058C45.5214 37.2518 44.3547 38.0941 43.041 38.0941H41.088C39.4267 38.0941 38.071 39.4195 38.036 41.0808L37.994 43.0361C37.9707 44.1678 37.3197 45.1945 36.307 45.7008L35.0237 46.3425C33.8477 46.9305 32.429 46.6995 31.5004 45.7708L30.119 44.3895C28.9454 43.2158 27.0484 43.1948 25.849 44.3428L24.435 45.6961C23.616 46.4801 22.433 46.7461 21.3574 46.3868L19.997 45.9341C18.751 45.5188 17.9087 44.3521 17.9087 43.0385V41.0855C17.9087 39.4241 16.5834 38.0685 14.922 38.0335L12.9667 37.9915C11.835 37.9681 10.8084 37.3171 10.302 36.3045L9.66036 35.0211C9.07236 33.8451 9.30336 32.4265 10.232 31.4978L11.6134 30.1165C12.787 28.9428 12.808 27.0458 11.66 25.8465L10.3067 24.4325C9.52036 23.6111 9.25436 22.4258 9.61369 21.3525L10.0664 19.9921C10.4817 18.7461 11.6484 17.9038 12.962 17.9038H14.915C16.5764 17.9038 17.932 16.5785 17.967 14.9171L18.009 12.9618C18.037 11.8301 18.6857 10.8035 19.6984 10.2971L20.9817 9.65547C22.1577 9.06747 23.5764 9.29847 24.505 10.2271L25.8864 11.6085C27.06 12.7821 28.957 12.8031 30.1564 11.6551L31.5704 10.3018C32.3894 9.52014 33.5747 9.25414 34.648 9.61347V9.61347Z" stroke="#323232" stroke-width="1.5" stroke-linecap="round" stroke-linejoin="round"/>
</svg>
