<svg width="56" height="56" viewBox="0 0 56 56" fill="none" xmlns="http://www.w3.org/2000/svg">
<path d="M39.668 16.3337H49.0013" stroke="#323232" stroke-width="1.5" stroke-linecap="round" stroke-linejoin="round"/>
<path d="M44.3346 21.0003V11.667" stroke="#323232" stroke-width="1.5" stroke-linecap="round" stroke-linejoin="round"/>
<path d="M37.3346 44.3333V46.6666C37.3346 47.9546 36.2893 48.9999 35.0013 48.9999H7.0013C5.7133 48.9999 4.66797 47.9546 4.66797 46.6666V44.3333V44.2959C4.66797 37.2353 12.7366 32.6479 21.0013 32.6479C29.266 32.6479 37.3346 37.2376 37.3346 44.2959" stroke="#323232" stroke-width="1.5" stroke-linecap="round" stroke-linejoin="round"/>
<path d="M26.7611 11.72C29.943 14.902 29.943 20.061 26.7611 23.243C23.5791 26.425 18.42 26.425 15.2381 23.243C12.0561 20.061 12.0561 14.902 15.2381 11.72C18.42 8.538 23.5791 8.538 26.7611 11.72" stroke="#323232" stroke-width="1.5" stroke-linecap="round" stroke-linejoin="round"/>
</svg>
