<svg width="56" height="56" viewBox="0 0 56 56" fill="none" xmlns="http://www.w3.org/2000/svg">
<path fill-rule="evenodd" clip-rule="evenodd" d="M21.4387 35L25.9 40.95C26.95 42.35 29.05 42.35 30.1 40.95L34.5613 35H42C45.8663 35 49 31.8663 49 28V14C49 10.1337 45.8663 7 42 7H14C10.1337 7 7 10.1337 7 14V28C7 31.8663 10.1337 35 14 35H21.4387Z" stroke="#323232" stroke-width="1.5" stroke-linecap="round" stroke-linejoin="round"/>
<path d="M16.333 49.0002H39.6663" stroke="#323232" stroke-width="1.5" stroke-linecap="round" stroke-linejoin="round"/>
<path d="M28.4127 21.7537C28.6413 21.9824 28.6413 22.3511 28.4127 22.5797C28.184 22.8084 27.8153 22.8084 27.5867 22.5797C27.358 22.3511 27.358 21.9824 27.5867 21.7537C27.8153 21.5251 28.184 21.5274 28.4127 21.7537" stroke="#323232" stroke-width="1.5" stroke-linecap="round" stroke-linejoin="round"/>
<path d="M37.7467 21.7537C37.9753 21.9824 37.9753 22.3511 37.7467 22.5797C37.518 22.8084 37.1493 22.8084 36.9207 22.5797C36.692 22.3511 36.692 21.9824 36.9207 21.7537C37.1493 21.5251 37.518 21.5274 37.7467 21.7537" stroke="#323232" stroke-width="1.5" stroke-linecap="round" stroke-linejoin="round"/>
<path d="M19.0797 21.7537C19.3083 21.9824 19.3083 22.3511 19.0797 22.5797C18.851 22.8084 18.4823 22.8084 18.2537 22.5797C18.025 22.3511 18.025 21.9824 18.2537 21.7537C18.4823 21.5251 18.851 21.5274 19.0797 21.7537" stroke="#323232" stroke-width="1.5" stroke-linecap="round" stroke-linejoin="round"/>
</svg>
