<svg width="56" height="56" viewBox="0 0 56 56" fill="none" xmlns="http://www.w3.org/2000/svg">
<path d="M27.9993 2.9165C32.9604 2.9165 37.81 4.38762 41.9349 7.14381C46.0598 9.9 49.2748 13.8175 51.1733 18.4009C53.0718 22.9842 53.5686 28.0277 52.6007 32.8934C51.6329 37.759 49.2439 42.2285 45.7359 45.7364C42.228 49.2444 37.7586 51.6334 32.8929 52.6012C28.0272 53.569 22.9838 53.0723 18.4004 51.1738C13.817 49.2753 9.89951 46.0603 7.14332 41.9354C4.38713 37.8105 2.91602 32.9609 2.91602 27.9998C2.91911 21.3483 5.5628 14.97 10.2662 10.2667C14.9695 5.56329 21.3478 2.9196 27.9993 2.9165V2.9165Z" stroke="black" stroke-linecap="round" stroke-linejoin="round"/>
<path d="M28.0007 30.9168C29.6115 30.9168 30.9173 29.611 30.9173 28.0002C30.9173 26.3893 29.6115 25.0835 28.0007 25.0835C26.3898 25.0835 25.084 26.3893 25.084 28.0002C25.084 29.611 26.3898 30.9168 28.0007 30.9168Z" stroke="black" stroke-linecap="round" stroke-linejoin="round"/>
<path d="M30.45 29.575L44.6833 38.675M28 25.0833V13.3467V25.0833Z" stroke="black" stroke-linecap="round" stroke-linejoin="round"/>
</svg>
