<svg width="56" height="56" viewBox="0 0 56 56" fill="none" xmlns="http://www.w3.org/2000/svg">
<path fill-rule="evenodd" clip-rule="evenodd" d="M42.0068 43.1731V43.1731C38.1389 43.1731 35.0039 40.0381 35.0039 36.1702V19.8301C35.0039 15.9621 38.1389 12.8271 42.0068 12.8271V12.8271C45.8748 12.8271 49.0097 15.9621 49.0097 19.8301V36.1702C49.0097 40.0381 45.8748 43.1731 42.0068 43.1731Z" stroke="#323232" stroke-width="1.5" stroke-linecap="round" stroke-linejoin="round"/>
<path d="M32.1 10.4858C30.0925 9.74586 27.9309 9.32568 25.6666 9.32568C15.3537 9.32568 6.99219 17.6872 6.99219 28.0001C6.99219 38.3131 15.3537 46.6746 25.6666 46.6746C27.9309 46.6746 30.0925 46.2544 32.1 45.5144" stroke="#323232" stroke-width="1.5" stroke-linecap="round" stroke-linejoin="round"/>
<path d="M42.5906 24.153C42.5906 23.8309 42.3291 23.5694 42.007 23.5694C41.6849 23.5718 41.4234 23.8309 41.4234 24.153C41.4234 24.4751 41.6849 24.7366 42.007 24.7366C42.3291 24.7366 42.5906 24.4775 42.5906 24.153" stroke="#323232" stroke-width="1.5" stroke-linecap="round" stroke-linejoin="round"/>
</svg>
