<svg width="56" height="56" viewBox="0 0 56 56" fill="none" xmlns="http://www.w3.org/2000/svg">
<path fill-rule="evenodd" clip-rule="evenodd" d="M19.832 37.334H36.1654V42.0007C36.1654 43.2893 35.1207 44.334 33.832 44.334H22.1654C20.8767 44.334 19.832 43.2893 19.832 42.0007V37.334Z" stroke="#323232" stroke-width="1.5" stroke-linecap="round" stroke-linejoin="round"/>
<path d="M18.668 16.3333V9.33333C18.668 8.04467 19.7126 7 21.0013 7H35.0013C36.29 7 37.3346 8.04467 37.3346 9.33333V16.3333" stroke="#323232" stroke-width="1.5" stroke-linecap="round" stroke-linejoin="round"/>
<path fill-rule="evenodd" clip-rule="evenodd" d="M24.4987 23.3335H31.4987C32.143 23.3335 32.6654 23.8558 32.6654 24.5002V29.1668C32.6654 29.8112 32.143 30.3335 31.4987 30.3335H24.4987C23.8544 30.3335 23.332 29.8112 23.332 29.1668V24.5002C23.332 23.8558 23.8544 23.3335 24.4987 23.3335Z" stroke="#323232" stroke-width="1.5" stroke-linecap="round" stroke-linejoin="round"/>
<path d="M32.6667 44.334V46.6673" stroke="#323232" stroke-width="1.5" stroke-linecap="round" stroke-linejoin="round"/>
<path d="M32.6667 44.334V46.6673" stroke="#323232" stroke-width="1.5" stroke-linecap="round" stroke-linejoin="round"/>
<path d="M32.6667 44.334V46.6673" stroke="#323232" stroke-width="1.5" stroke-linecap="round" stroke-linejoin="round"/>
<path d="M32.6667 44.334V46.6673" stroke="#323232" stroke-width="1.5" stroke-linecap="round" stroke-linejoin="round"/>
<path d="M32.6667 44.334V46.6673" stroke="#323232" stroke-width="1.5" stroke-linecap="round" stroke-linejoin="round"/>
<path d="M32.6667 44.334V46.6673" stroke="#323232" stroke-width="1.5" stroke-linecap="round" stroke-linejoin="round"/>
<path d="M32.6667 44.334V46.6673" stroke="#323232" stroke-width="1.5" stroke-linecap="round" stroke-linejoin="round"/>
<path d="M32.6667 44.334V46.6673" stroke="#323232" stroke-width="1.5" stroke-linecap="round" stroke-linejoin="round"/>
<path d="M32.6667 44.334V46.6673" stroke="#323232" stroke-width="1.5" stroke-linecap="round" stroke-linejoin="round"/>
<path d="M32.6667 44.334V46.6673" stroke="#323232" stroke-width="1.5" stroke-linecap="round" stroke-linejoin="round"/>
<path d="M32.6667 44.334V46.6673" stroke="#323232" stroke-width="1.5" stroke-linecap="round" stroke-linejoin="round"/>
<path d="M32.6667 44.334V46.6673" stroke="#323232" stroke-width="1.5" stroke-linecap="round" stroke-linejoin="round"/>
<path d="M32.6667 44.334V46.6673" stroke="#323232" stroke-width="1.5" stroke-linecap="round" stroke-linejoin="round"/>
<path d="M32.6667 44.334V46.6673" stroke="#323232" stroke-width="1.5" stroke-linecap="round" stroke-linejoin="round"/>
<path d="M32.6667 44.334V46.6673" stroke="#323232" stroke-width="1.5" stroke-linecap="round" stroke-linejoin="round"/>
<path d="M32.6667 44.3335V49.0001" stroke="#323232" stroke-width="1.5" stroke-linecap="round" stroke-linejoin="round"/>
<rect x="14" y="16.3335" width="28" height="21" rx="1.5" stroke="#323232" stroke-width="1.5" stroke-linecap="round" stroke-linejoin="round"/>
<path d="M23.3346 44.3335V49.0001" stroke="#323232" stroke-width="1.5" stroke-linecap="round" stroke-linejoin="round"/>
</svg>
