<svg width="56" height="56" viewBox="0 0 56 56" fill="none" xmlns="http://www.w3.org/2000/svg">
<path d="M23.3346 42V49" stroke="#323232" stroke-width="1.5" stroke-linecap="round" stroke-linejoin="round"/>
<path fill-rule="evenodd" clip-rule="evenodd" d="M19.832 16.3335H36.1654C38.0984 16.3335 39.6654 17.9005 39.6654 19.8335V35.0002C39.6654 38.8662 36.5314 42.0002 32.6654 42.0002H23.332C19.466 42.0002 16.332 38.8662 16.332 35.0002V19.8335C16.332 17.9005 17.899 16.3335 19.832 16.3335Z" stroke="#323232" stroke-width="1.5" stroke-linecap="round" stroke-linejoin="round"/>
<path d="M28.4799 33.8333L30.9154 29.1667H25.082L27.5174 24.5" stroke="#323232" stroke-width="1.5" stroke-linecap="round" stroke-linejoin="round"/>
<path d="M21 16.3333V9.33333C21 8.04467 22.0447 7 23.3333 7H32.6667C33.9553 7 35 8.04467 35 9.33333V16.3333" stroke="#323232" stroke-width="1.5" stroke-linecap="round" stroke-linejoin="round"/>
<path d="M32.6667 42V49" stroke="#323232" stroke-width="1.5" stroke-linecap="round" stroke-linejoin="round"/>
</svg>
