<svg width="56" height="56" viewBox="0 0 56 56" fill="none" xmlns="http://www.w3.org/2000/svg">
<path fill-rule="evenodd" clip-rule="evenodd" d="M37.3382 44.3401L39.0282 47.7178C39.4233 48.5085 40.2311 49.0082 41.1151 49.0087H46.6754C47.9646 49.0087 49.0097 47.9636 49.0097 46.6744V9.32552C49.0097 8.03632 47.9646 6.99121 46.6754 6.99121H41.1151C40.2311 6.99168 39.4233 7.49138 39.0282 8.28208L37.3382 11.6598H18.6637L16.9737 8.28208C16.5786 7.49138 15.7707 6.99168 14.8868 6.99121H9.32649C8.03729 6.99121 6.99219 8.03632 6.99219 9.32552V46.6744C6.99219 47.9636 8.03729 49.0087 9.32649 49.0087H14.8868C15.7707 49.0082 16.5786 48.5085 16.9737 47.7178L18.6637 44.3401H37.3382Z" stroke="#323232" stroke-width="1.5" stroke-linecap="round" stroke-linejoin="round"/>
</svg>
