<svg width="56" height="56" viewBox="0 0 56 56" fill="none" xmlns="http://www.w3.org/2000/svg">
<path d="M23.3312 44.3403V51.3432" stroke="#323232" stroke-width="1.5" stroke-linecap="round" stroke-linejoin="round"/>
<path fill-rule="evenodd" clip-rule="evenodd" d="M17.4936 20.9971H38.5024C40.4362 20.9971 42.0039 22.5647 42.0039 24.4985V37.3372C42.0039 41.2048 38.8685 44.3401 35.0009 44.3401H20.9951C17.1275 44.3401 13.9922 41.2048 13.9922 37.3372V24.4985C13.9922 22.5647 15.5598 20.9971 17.4936 20.9971Z" stroke="#323232" stroke-width="1.5" stroke-linecap="round" stroke-linejoin="round"/>
<path d="M18.6641 20.997V9.32552C18.6641 8.03632 19.7092 6.99121 20.9984 6.99121H35.0042C36.2934 6.99121 37.3385 8.03632 37.3385 9.32552V20.997" stroke="#323232" stroke-width="1.5" stroke-linecap="round" stroke-linejoin="round"/>
<path d="M24.3672 14.9279H25.4046" stroke="#323232" stroke-width="1.5" stroke-linecap="round" stroke-linejoin="round"/>
<path d="M30.5937 14.9279H31.6312" stroke="#323232" stroke-width="1.5" stroke-linecap="round" stroke-linejoin="round"/>
<path d="M32.6672 44.3403V51.3432" stroke="#323232" stroke-width="1.5" stroke-linecap="round" stroke-linejoin="round"/>
</svg>
