<svg width="56" height="56" viewBox="0 0 56 56" fill="none" xmlns="http://www.w3.org/2000/svg">
<rect x="5.83203" y="28" width="11.6667" height="11.6667" rx="1" stroke="#323232" stroke-width="1.5" stroke-linecap="round" stroke-linejoin="round"/>
<path fill-rule="evenodd" clip-rule="evenodd" d="M8.16797 39.6665H15.168V46.0832C15.168 46.4053 14.9068 46.6665 14.5846 46.6665H8.7513C8.42914 46.6665 8.16797 46.4053 8.16797 46.0832V39.6665Z" stroke="#323232" stroke-width="1.5" stroke-linecap="round" stroke-linejoin="round"/>
<path fill-rule="evenodd" clip-rule="evenodd" d="M10.5013 21H12.8346C14.1233 21 15.168 22.0447 15.168 23.3333V28H8.16797V23.3333C8.16797 22.0447 9.21264 21 10.5013 21Z" stroke="#323232" stroke-width="1.5" stroke-linecap="round" stroke-linejoin="round"/>
<rect x="38.5" y="7" width="11.6667" height="16.3333" rx="1" stroke="#323232" stroke-width="1.5" stroke-linecap="round" stroke-linejoin="round"/>
<path fill-rule="evenodd" clip-rule="evenodd" d="M40.832 23.3335H47.832V28.0002C47.832 29.2888 46.7874 30.3335 45.4987 30.3335H43.1654C41.8767 30.3335 40.832 29.2888 40.832 28.0002V23.3335Z" stroke="#323232" stroke-width="1.5" stroke-linecap="round" stroke-linejoin="round"/>
<path d="M11.668 20.9998V12.8332C11.668 8.32285 15.3243 4.6665 19.8346 4.6665V4.6665C24.345 4.6665 28.0013 8.32285 28.0013 12.8332V43.1665C28.0013 47.6768 31.6576 51.3332 36.168 51.3332V51.3332C40.6783 51.3332 44.3346 47.6768 44.3346 43.1665V30.3332" stroke="#323232" stroke-width="1.5" stroke-linecap="round" stroke-linejoin="round"/>
</svg>
