<svg width="56" height="56" viewBox="0 0 56 56" fill="none" xmlns="http://www.w3.org/2000/svg">
<path fill-rule="evenodd" clip-rule="evenodd" d="M46.6667 16.3333H9.33333C8.04533 16.3333 7 15.288 7 14V9.33333C7 8.04533 8.04533 7 9.33333 7H46.6667C47.9547 7 49 8.04533 49 9.33333V14C49 15.288 47.9547 16.3333 46.6667 16.3333Z" stroke="#323232" stroke-width="1.5" stroke-linecap="round" stroke-linejoin="round"/>
<path fill-rule="evenodd" clip-rule="evenodd" d="M46.6667 32.6668H9.33333C8.04533 32.6668 7 31.6215 7 30.3335V25.6668C7 24.3788 8.04533 23.3335 9.33333 23.3335H46.6667C47.9547 23.3335 49 24.3788 49 25.6668V30.3335C49 31.6215 47.9547 32.6668 46.6667 32.6668Z" stroke="#323232" stroke-width="1.5" stroke-linecap="round" stroke-linejoin="round"/>
<path fill-rule="evenodd" clip-rule="evenodd" d="M46.6667 48.9998H9.33333C8.04533 48.9998 7 47.9545 7 46.6665V41.9998C7 40.7118 8.04533 39.6665 9.33333 39.6665H46.6667C47.9547 39.6665 49 40.7118 49 41.9998V46.6665C49 47.9545 47.9547 48.9998 46.6667 48.9998Z" stroke="#323232" stroke-width="1.5" stroke-linecap="round" stroke-linejoin="round"/>
</svg>
