<svg width="56" height="56" viewBox="0 0 56 56" fill="none" xmlns="http://www.w3.org/2000/svg">
<path d="M14.294 32.2002L7 39.6669L12.8333 43.1669L16.3333 49.0002L25.431 39.4452" stroke="#323232" stroke-width="1.5" stroke-linecap="round" stroke-linejoin="round"/>
<path d="M30.5693 39.4452L39.667 49.0002L43.167 43.1669L49.0003 39.6669L41.7063 32.2002" stroke="#323232" stroke-width="1.5" stroke-linecap="round" stroke-linejoin="round"/>
<path d="M39.5497 11.7839C45.9283 18.1625 45.9283 28.5042 39.5497 34.8827C33.1712 41.2613 22.8295 41.2613 16.4509 34.8827C10.0724 28.5042 10.0724 18.1625 16.4509 11.7839C22.8295 5.40536 33.1712 5.40536 39.5497 11.7839" stroke="#323232" stroke-width="1.5" stroke-linecap="round" stroke-linejoin="round"/>
<path fill-rule="evenodd" clip-rule="evenodd" d="M27.9973 29.3627L32.1903 31.5654C33.007 31.9947 33.9613 31.3017 33.805 30.3917L33.0046 25.7227L36.3973 22.4187C37.0576 21.7747 36.6936 20.6524 35.7813 20.5194L31.0936 19.838L28.9983 15.589C28.59 14.7607 27.4116 14.7607 27.0033 15.589L24.908 19.838L20.218 20.5217C19.3056 20.6547 18.9416 21.777 19.602 22.421L22.9946 25.725L22.1943 30.394C22.038 31.304 22.9923 31.997 23.809 31.5677L28.002 29.365H27.9973V29.3627Z" stroke="#323232" stroke-width="1.5" stroke-linecap="round" stroke-linejoin="round"/>
</svg>
