<svg width="56" height="56" viewBox="0 0 56 56" fill="none" xmlns="http://www.w3.org/2000/svg">
<path d="M35.2187 13.947C39.2053 17.9336 39.2053 24.3971 35.2187 28.3837C31.2321 32.3703 24.7685 32.3703 20.7819 28.3837C16.7953 24.3971 16.7953 17.9336 20.7819 13.947C24.7685 9.96038 31.2321 9.96038 35.2187 13.947" stroke="#323232" stroke-width="1.5" stroke-linecap="round" stroke-linejoin="round"/>
<path d="M25.9583 19.1237L28 17.082V25.2487" stroke="#323232" stroke-width="1.5" stroke-linecap="round" stroke-linejoin="round"/>
<path d="M25.9463 25.2467H30.053" stroke="#323232" stroke-width="1.5" stroke-linecap="round" stroke-linejoin="round"/>
<path d="M39.6665 9.49895C46.1098 15.9422 46.1098 26.3888 39.6665 32.8321C33.2233 39.2753 22.7767 39.2753 16.3334 32.8321C9.89016 26.3888 9.89016 15.9422 16.3334 9.49895C22.7767 3.05569 33.2233 3.05569 39.6665 9.49895" stroke="#323232" stroke-width="1.5" stroke-linecap="round" stroke-linejoin="round"/>
<path fill-rule="evenodd" clip-rule="evenodd" d="M40.3177 44.333H15.6823C14.679 44.333 13.7853 44.9747 13.468 45.929L12.691 48.2623C12.187 49.772 13.3117 51.333 14.903 51.333H41.0947C42.6883 51.333 43.813 49.772 43.309 48.2623L42.532 45.929C42.2147 44.9747 41.3233 44.333 40.3177 44.333V44.333Z" stroke="#323232" stroke-width="1.5" stroke-linecap="round" stroke-linejoin="round"/>
<path d="M33.7403 44.333L32.597 37.0063" stroke="#323232" stroke-width="1.5" stroke-linecap="round" stroke-linejoin="round"/>
<path d="M22.26 44.333L23.4034 37.0063" stroke="#323232" stroke-width="1.5" stroke-linecap="round" stroke-linejoin="round"/>
</svg>
