<svg width="56" height="56" viewBox="0 0 56 56" fill="none" xmlns="http://www.w3.org/2000/svg">
<path fill-rule="evenodd" clip-rule="evenodd" d="M30.333 38.4998H25.6663C20.512 38.4998 16.333 34.3208 16.333 29.1665V10.4998C16.333 9.21184 17.3783 8.1665 18.6663 8.1665H37.333C38.621 8.1665 39.6663 9.21184 39.6663 10.4998V29.1665C39.6663 34.3208 35.4873 38.4998 30.333 38.4998Z" stroke="#323232" stroke-width="1.5"/>
<path d="M27.9997 38.5V47.8333" stroke="#323232" stroke-width="1.5"/>
<path d="M21 47.8332H35" stroke="#323232" stroke-width="1.5" stroke-linecap="round" stroke-linejoin="round"/>
<path d="M39.667 15.1665H46.667C47.955 15.1665 49.0003 16.2118 49.0003 17.4998V22.1665C49.0003 26.0328 45.8667 29.1665 42.0003 29.1665H39.667" stroke="#323232" stroke-width="1.5" stroke-linecap="round" stroke-linejoin="round"/>
<path d="M16.3333 15.1665H9.33333C8.04533 15.1665 7 16.2118 7 17.4998V22.1665C7 26.0328 10.1337 29.1665 14 29.1665H16.3333" stroke="#323232" stroke-width="1.5" stroke-linecap="round" stroke-linejoin="round"/>
</svg>
