<svg width="56" height="56" viewBox="0 0 56 56" fill="none" xmlns="http://www.w3.org/2000/svg">
<path d="M29.097 7.053C32.279 10.235 32.279 15.394 29.097 18.576C25.915 21.758 20.756 21.758 17.574 18.576C14.392 15.394 14.392 10.235 17.574 7.053C20.756 3.87101 25.915 3.87101 29.097 7.053" stroke="#323232" stroke-width="1.5" stroke-linecap="round" stroke-linejoin="round"/>
<path d="M33.515 29.8573C30.484 28.6463 26.928 27.979 23.3346 27.979C13.8893 27.979 4.66797 32.5687 4.66797 39.627V41.9603C4.66797 43.2483 5.7133 44.2937 7.0013 44.2937H28.965" stroke="#323232" stroke-width="1.5" stroke-linecap="round" stroke-linejoin="round"/>
<path d="M39.6667 51.3333C33.2243 51.3333 28 46.1113 28 39.6667C28 33.3573 33.3667 27.993 39.676 28C46.116 28.0047 51.3333 33.2267 51.3333 39.6667C51.3333 46.109 46.1113 51.3333 39.6667 51.3333" stroke="#323232" stroke-width="1.5" stroke-linecap="round" stroke-linejoin="round"/>
<path d="M38.1875 35.541L42.3128 39.6663L38.1875 43.7917" stroke="#323232" stroke-width="1.5" stroke-linecap="round" stroke-linejoin="round"/>
</svg>
